<?xml version="1.0" encoding="UTF-8" standalone="no"?>
<svg
   xmlns:dc="http://purl.org/dc/elements/1.1/"
   xmlns:cc="http://creativecommons.org/ns#"
   xmlns:rdf="http://www.w3.org/1999/02/22-rdf-syntax-ns#"
   xmlns:svg="http://www.w3.org/2000/svg"
   xmlns="http://www.w3.org/2000/svg"
   viewBox="0 0 384 288"
   height="288"
   width="384"
   xml:space="preserve"
   id="svg2"
   version="1.1"><metadata
     id="metadata8"><rdf:RDF><cc:Work
         rdf:about=""><dc:format>image/svg+xml</dc:format><dc:type
           rdf:resource="http://purl.org/dc/dcmitype/StillImage" /></cc:Work></rdf:RDF></metadata><defs
     id="defs6"><clipPath
       id="clipPath130"
       clipPathUnits="userSpaceOnUse"><path
         id="path128"
         d="M 48.53,42.68 H 277.2 V 201.24 H 48.53 Z" /></clipPath><clipPath
       id="clipPath140"
       clipPathUnits="userSpaceOnUse"><path
         id="path138"
         d="M 48.53,42.68 H 277.2 V 201.24 H 48.53 Z" /></clipPath><clipPath
       id="clipPath150"
       clipPathUnits="userSpaceOnUse"><path
         id="path148"
         d="M 48.53,42.68 H 277.2 V 201.24 H 48.53 Z" /></clipPath><clipPath
       id="clipPath160"
       clipPathUnits="userSpaceOnUse"><path
         id="path158"
         d="M 48.53,42.68 H 277.2 V 201.24 H 48.53 Z" /></clipPath><clipPath
       id="clipPath170"
       clipPathUnits="userSpaceOnUse"><path
         id="path168"
         d="M 48.53,42.68 H 277.2 V 201.24 H 48.53 Z" /></clipPath></defs><g
     transform="matrix(1.3333333,0,0,-1.3333333,0,288)"
     id="g10"><path
       id="path12"
       style="fill:#ffffff;fill-opacity:1;fill-rule:nonzero;stroke:none"
       d="M 0,0 H 288 V 216 H 0 Z" /><path
       id="path14"
       style="fill:#ffffff;fill-opacity:1;fill-rule:nonzero;stroke:none"
       d="M 48.53,42.68 H 277.2 V 201.24 H 48.53 Z" /><path
       id="path16"
       style="fill:#000000;fill-opacity:1;fill-rule:nonzero;stroke:#000000;stroke-width:0.80000001;stroke-linecap:butt;stroke-linejoin:round;stroke-miterlimit:10;stroke-dasharray:none;stroke-opacity:1"
       d="m 56.824275,42.68 v -3.5" /><g
       transform="translate(53.644587,28.08625)"
       id="g18"><text
         id="text22"
         style="font-variant:normal;font-weight:normal;font-size:10px;font-family:'DejaVu Sans';-inkscape-font-specification:DejaVuSans;writing-mode:lr-tb;fill:#000000;fill-opacity:1;fill-rule:nonzero;stroke:none"
         transform="scale(1,-1)"><tspan
           id="tspan20"
           y="0"
           x="0">0</tspan></text>
</g><path
       id="path24"
       style="fill:#000000;fill-opacity:1;fill-rule:nonzero;stroke:#000000;stroke-width:0.80000001;stroke-linecap:butt;stroke-linejoin:round;stroke-miterlimit:10;stroke-dasharray:none;stroke-opacity:1"
       d="m 98.820601,42.68 v -3.5" /><g
       transform="translate(92.461226,28.08625)"
       id="g26"><text
         id="text30"
         style="font-variant:normal;font-weight:normal;font-size:10px;font-family:'DejaVu Sans';-inkscape-font-specification:DejaVuSans;writing-mode:lr-tb;fill:#000000;fill-opacity:1;fill-rule:nonzero;stroke:none"
         transform="scale(1,-1)"><tspan
           id="tspan28"
           y="0"
           x="0 6.3600001">20</tspan></text>
</g><path
       id="path32"
       style="fill:#000000;fill-opacity:1;fill-rule:nonzero;stroke:#000000;stroke-width:0.80000001;stroke-linecap:butt;stroke-linejoin:round;stroke-miterlimit:10;stroke-dasharray:none;stroke-opacity:1"
       d="m 140.81693,42.68 v -3.5" /><g
       transform="translate(134.45755,28.08625)"
       id="g34"><text
         id="text38"
         style="font-variant:normal;font-weight:normal;font-size:10px;font-family:'DejaVu Sans';-inkscape-font-specification:DejaVuSans;writing-mode:lr-tb;fill:#000000;fill-opacity:1;fill-rule:nonzero;stroke:none"
         transform="scale(1,-1)"><tspan
           id="tspan36"
           y="0"
           x="0 6.3600001">40</tspan></text>
</g><path
       id="path40"
       style="fill:#000000;fill-opacity:1;fill-rule:nonzero;stroke:#000000;stroke-width:0.80000001;stroke-linecap:butt;stroke-linejoin:round;stroke-miterlimit:10;stroke-dasharray:none;stroke-opacity:1"
       d="m 182.81325,42.68 v -3.5" /><g
       transform="translate(176.45388,28.08625)"
       id="g42"><text
         id="text46"
         style="font-variant:normal;font-weight:normal;font-size:10px;font-family:'DejaVu Sans';-inkscape-font-specification:DejaVuSans;writing-mode:lr-tb;fill:#000000;fill-opacity:1;fill-rule:nonzero;stroke:none"
         transform="scale(1,-1)"><tspan
           id="tspan44"
           y="0"
           x="0 6.3600001">60</tspan></text>
</g><path
       id="path48"
       style="fill:#000000;fill-opacity:1;fill-rule:nonzero;stroke:#000000;stroke-width:0.80000001;stroke-linecap:butt;stroke-linejoin:round;stroke-miterlimit:10;stroke-dasharray:none;stroke-opacity:1"
       d="m 224.80958,42.68 v -3.5" /><g
       transform="translate(218.45021,28.08625)"
       id="g50"><text
         id="text54"
         style="font-variant:normal;font-weight:normal;font-size:10px;font-family:'DejaVu Sans';-inkscape-font-specification:DejaVuSans;writing-mode:lr-tb;fill:#000000;fill-opacity:1;fill-rule:nonzero;stroke:none"
         transform="scale(1,-1)"><tspan
           id="tspan52"
           y="0"
           x="0 6.3600001">80</tspan></text>
</g><path
       id="path56"
       style="fill:#000000;fill-opacity:1;fill-rule:nonzero;stroke:#000000;stroke-width:0.80000001;stroke-linecap:butt;stroke-linejoin:round;stroke-miterlimit:10;stroke-dasharray:none;stroke-opacity:1"
       d="m 266.80591,42.68 v -3.5" /><g
       transform="translate(257.26685,28.08625)"
       id="g58"><text
         id="text62"
         style="font-variant:normal;font-weight:normal;font-size:10px;font-family:'DejaVu Sans';-inkscape-font-specification:DejaVuSans;writing-mode:lr-tb;fill:#000000;fill-opacity:1;fill-rule:nonzero;stroke:none"
         transform="scale(1,-1)"><tspan
           id="tspan60"
           y="0"
           x="0 6.3600001 12.72">100</tspan></text>
</g><g
       transform="translate(149.19312,12.883125)"
       id="g64"><text
         id="text68"
         style="font-variant:normal;font-weight:normal;font-size:12px;font-family:'DejaVu Sans';-inkscape-font-specification:DejaVuSans;writing-mode:lr-tb;fill:#000000;fill-opacity:1;fill-rule:nonzero;stroke:none"
         transform="scale(1,-1)"><tspan
           id="tspan66"
           y="0"
           x="0 7.6199999 12.324 19.704">Step</tspan></text>
</g><path
       id="path70"
       style="fill:#000000;fill-opacity:1;fill-rule:nonzero;stroke:#000000;stroke-width:0.80000001;stroke-linecap:butt;stroke-linejoin:round;stroke-miterlimit:10;stroke-dasharray:none;stroke-opacity:1"
       d="m 48.53,42.68 h -3.5" /><g
       transform="translate(25.62375,38.883125)"
       id="g72"><text
         id="text76"
         style="font-variant:normal;font-weight:normal;font-size:10px;font-family:'DejaVu Sans';-inkscape-font-specification:DejaVuSans;writing-mode:lr-tb;fill:#000000;fill-opacity:1;fill-rule:nonzero;stroke:none"
         transform="scale(1,-1)"><tspan
           id="tspan74"
           y="0"
           x="0 6.3600001 9.54">0.0</tspan></text>
</g><path
       id="path78"
       style="fill:#000000;fill-opacity:1;fill-rule:nonzero;stroke:#000000;stroke-width:0.80000001;stroke-linecap:butt;stroke-linejoin:round;stroke-miterlimit:10;stroke-dasharray:none;stroke-opacity:1"
       d="m 48.53,74.392 h -3.5" /><g
       transform="translate(25.62375,70.595125)"
       id="g80"><text
         id="text84"
         style="font-variant:normal;font-weight:normal;font-size:10px;font-family:'DejaVu Sans';-inkscape-font-specification:DejaVuSans;writing-mode:lr-tb;fill:#000000;fill-opacity:1;fill-rule:nonzero;stroke:none"
         transform="scale(1,-1)"><tspan
           id="tspan82"
           y="0"
           x="0 6.3600001 9.54">0.2</tspan></text>
</g><path
       id="path86"
       style="fill:#000000;fill-opacity:1;fill-rule:nonzero;stroke:#000000;stroke-width:0.80000001;stroke-linecap:butt;stroke-linejoin:round;stroke-miterlimit:10;stroke-dasharray:none;stroke-opacity:1"
       d="m 48.53,106.104 h -3.5" /><g
       transform="translate(25.62375,102.30713)"
       id="g88"><text
         id="text92"
         style="font-variant:normal;font-weight:normal;font-size:10px;font-family:'DejaVu Sans';-inkscape-font-specification:DejaVuSans;writing-mode:lr-tb;fill:#000000;fill-opacity:1;fill-rule:nonzero;stroke:none"
         transform="scale(1,-1)"><tspan
           id="tspan90"
           y="0"
           x="0 6.3600001 9.54">0.4</tspan></text>
</g><path
       id="path94"
       style="fill:#000000;fill-opacity:1;fill-rule:nonzero;stroke:#000000;stroke-width:0.80000001;stroke-linecap:butt;stroke-linejoin:round;stroke-miterlimit:10;stroke-dasharray:none;stroke-opacity:1"
       d="m 48.53,137.816 h -3.5" /><g
       transform="translate(25.62375,134.01912)"
       id="g96"><text
         id="text100"
         style="font-variant:normal;font-weight:normal;font-size:10px;font-family:'DejaVu Sans';-inkscape-font-specification:DejaVuSans;writing-mode:lr-tb;fill:#000000;fill-opacity:1;fill-rule:nonzero;stroke:none"
         transform="scale(1,-1)"><tspan
           id="tspan98"
           y="0"
           x="0 6.3600001 9.54">0.6</tspan></text>
</g><path
       id="path102"
       style="fill:#000000;fill-opacity:1;fill-rule:nonzero;stroke:#000000;stroke-width:0.80000001;stroke-linecap:butt;stroke-linejoin:round;stroke-miterlimit:10;stroke-dasharray:none;stroke-opacity:1"
       d="m 48.53,169.528 h -3.5" /><g
       transform="translate(25.62375,165.73112)"
       id="g104"><text
         id="text108"
         style="font-variant:normal;font-weight:normal;font-size:10px;font-family:'DejaVu Sans';-inkscape-font-specification:DejaVuSans;writing-mode:lr-tb;fill:#000000;fill-opacity:1;fill-rule:nonzero;stroke:none"
         transform="scale(1,-1)"><tspan
           id="tspan106"
           y="0"
           x="0 6.3600001 9.54">0.8</tspan></text>
</g><path
       id="path110"
       style="fill:#000000;fill-opacity:1;fill-rule:nonzero;stroke:#000000;stroke-width:0.80000001;stroke-linecap:butt;stroke-linejoin:round;stroke-miterlimit:10;stroke-dasharray:none;stroke-opacity:1"
       d="m 48.53,201.24 h -3.5" /><g
       transform="translate(25.62375,197.44312)"
       id="g112"><text
         id="text116"
         style="font-variant:normal;font-weight:normal;font-size:10px;font-family:'DejaVu Sans';-inkscape-font-specification:DejaVuSans;writing-mode:lr-tb;fill:#000000;fill-opacity:1;fill-rule:nonzero;stroke:none"
         transform="scale(1,-1)"><tspan
           id="tspan114"
           y="0"
           x="0 6.3600001 9.54">1.0</tspan></text>
</g><g
       transform="rotate(90,-37.988438,57.112188)"
       id="g118"><text
         id="text122"
         style="font-variant:normal;font-weight:normal;font-size:12px;font-family:'DejaVu Sans';-inkscape-font-specification:DejaVuSans;writing-mode:lr-tb;fill:#000000;fill-opacity:1;fill-rule:nonzero;stroke:none"
         transform="scale(1,-1)"><tspan
           id="tspan120"
           y="0"
           x="0 11.688 19.068001 26.424 34.032001 37.571999 44.916">meanIoU</tspan></text>
</g><g
       id="g124"><g
         clip-path="url(#clipPath130)"
         id="g126"><path
           id="path132"
           style="fill:none;stroke:#1f77b4;stroke-width:1.5;stroke-linecap:butt;stroke-linejoin:round;stroke-miterlimit:10;stroke-dasharray:5.55, 2.4;stroke-dashoffset:0;stroke-opacity:1"
           d="m 58.924091,57.069041 2.099816,1.182085 2.099817,-0.521797 2.099816,0.907303 2.099816,0.693954 2.099817,0.214143 2.099816,-1.649001 2.099816,-0.363872 2.099817,-0.553932 2.099816,-0.7975 2.099816,-0.159953 2.099817,-1.06581 2.099816,0.802198 2.099816,-0.815599 2.099817,0.383536 2.099816,1.603728 2.099816,2.376276 2.099817,0.560712 2.099816,0.479673 2.099816,-1.110696 2.099819,-0.45383 2.09981,-0.388837 2.09982,-0.169283 2.09982,-0.768139 2.09981,-0.127076 2.09982,-0.604797 2.09982,-1.345922 2.09981,-0.883886 2.09982,0.571427 2.09982,-0.712355 2.09981,-0.829532 2.09982,-0.692571 2.09981,-0.629872 2.09982,-0.45968 2.09982,-0.169657 2.09981,0.03124 2.09982,0.160244 2.09982,-0.02008 2.09981,0.573517 2.09982,-0.691123 2.09981,-0.203052 2.09982,-0.271801 2.09982,-0.0087 2.09981,-0.780537 2.09982,0.09469 2.09982,-0.06015 2.09981,0.06247 2.09982,-0.0084 2.09981,0.118603 2.09982,0.924437 2.09982,-0.420321 2.09981,0.165616 2.09982,0.305837 2.09982,0.522278 2.09981,1.084007 2.09982,0.426007 2.09982,0.721326 2.09981,1.275473 2.09982,-0.310882 2.09981,-0.06955 2.09982,-0.04206 2.09982,0.321645 2.09981,-0.81869 2.09982,-0.55124 2.09982,0.840298 2.09981,-1.688171 2.09982,-0.225574 2.09982,0.06189 2.09981,-0.18647 2.09982,0.10391 2.09981,1.353787 2.09982,-1.071946 2.09982,0.987507 2.09981,0.159932 2.09982,1.599684 2.09982,-3.428483 2.09981,-0.708544 2.09982,0.451587 2.09982,0.229768 2.09981,0.357422 2.09982,0.307296 2.09981,0.03042 2.09982,0.299197 2.09982,0.361048 2.09981,0.69082 2.09982,0.375307 2.09982,-0.08733 2.09981,0.946445 2.09982,0.319808 2.09982,1.22535 2.09981,0.188383 2.09982,-0.133705 2.09981,-0.19938 2.09982,-1.07776 2.09982,-0.620351 2.09981,-0.658096 2.09982,-1.293017 2.09982,-0.620558 2.09981,-1.511137 2.09982,-1.184059" /></g></g><g
       id="g134"><g
         clip-path="url(#clipPath140)"
         id="g136"><path
           id="path142"
           style="fill:none;stroke:#ff7f0e;stroke-width:1.5;stroke-linecap:square;stroke-linejoin:round;stroke-miterlimit:10;stroke-dasharray:none;stroke-opacity:1"
           d="m 58.924091,159.08674 2.099816,2.64881 2.099817,-0.4198 2.099816,4.21032 2.099816,3.15145 2.099817,0.82483 2.099816,1.36349 2.099816,1.33335 2.099817,0.46369 2.099816,0.0582 2.099816,0.31313 2.099817,-0.0562 2.099816,0.11264 2.099816,-0.12267 2.099817,-0.0367 2.099816,0.0594 2.099816,-0.0807 2.099817,-0.0635 2.099816,-0.12816 2.099816,-0.23494 2.099819,-0.13479 2.09981,-0.14766 2.09982,-0.10355 2.09982,-0.13358 2.09981,-0.22438 2.09982,-0.20096 2.09982,-0.37285 2.09981,-0.21335 2.09982,-0.39742 2.09982,-0.27035 2.09981,-0.61465 2.09982,-1.5504 2.09981,-0.97407 2.09982,-0.22836 2.09982,-0.35338 2.09981,2.02536 2.09982,2.40196 2.09982,-0.67854 2.09981,-0.81724 2.09982,-0.46756 2.09981,-0.35962 2.09982,-0.73139 2.09982,-0.32024 2.09981,1.49498 2.09982,-0.51329 2.09982,-1.22057 2.09981,1.68722 2.09982,1.33287 2.09981,-1.04466 2.09982,-0.93323 2.09982,-1.5341 2.09981,-0.88576 2.09982,-1.7721 2.09982,-1.76255 2.09981,-1.94823 2.09982,-2.75385 2.09982,-0.58597 2.09981,0.58717 2.09982,-5.58956 2.09981,-1.3843 2.09982,2.91458 2.09982,-2.51769 2.09981,0.79049 2.09982,4.4132 2.09982,-2.81652 2.09981,1.93321 2.09982,-0.5995 2.09982,-2.32842 2.09981,-2.11113 2.09982,-0.0358 2.09981,0.66208 2.09982,0.0576 2.09982,-3.23825 2.09981,6.42076 2.09982,-5.34976 2.09982,-0.83402 2.09981,-1.90782 2.09982,2.28058 2.09982,-0.63833 2.09981,1.88792 2.09982,2.72869 2.09981,-2.0302 2.09982,0.65382 2.09982,-0.75512 2.09981,3.47279 2.09982,1.24608 2.09982,-2.76126 2.09981,1.38098 2.09982,-0.0821 2.09982,2.06786 2.09981,0.16062 2.09982,-1.12774 2.09981,-1.05686 2.09982,0.85268 2.09982,-2.05925 2.09981,2.29434 2.09982,-0.93362 2.09982,-0.79041 2.09981,1.78006 2.09982,-0.72081" /></g></g><g
       id="g144"><g
         clip-path="url(#clipPath150)"
         id="g146"><path
           id="path152"
           style="fill:none;stroke:#2ca02c;stroke-width:1.5;stroke-linecap:square;stroke-linejoin:round;stroke-miterlimit:10;stroke-dasharray:none;stroke-opacity:1"
           d="m 58.924091,157.97934 2.099816,3.02265 2.099817,-0.52292 2.099816,3.55027 2.099816,2.58732 2.099817,0.71643 2.099816,1.56077 2.099816,0.74451 2.099817,-1.38032 2.099816,0.71872 2.099816,-2.28031 2.099817,0.50627 2.099816,0.11979 2.099816,0.49832 2.099817,0.92663 2.099816,-0.0454 2.099816,0.73717 2.099817,2.41492 2.099816,0.43919 2.099816,-0.43963 2.099819,-0.55892 2.09981,-0.1866 2.09982,0.26266 2.09982,0.56786 2.09981,-2.9353 2.09982,-0.21135 2.09982,-0.40006 2.09981,-0.22163 2.09982,-0.35193 2.09982,-0.14936 2.09981,0.64929 2.09982,-1.76344 2.09981,-0.8313 2.09982,0.27045 2.09982,0.25622 2.09981,2.26479 2.09982,2.39544 2.09982,-0.4722 2.09981,-0.82546 2.09982,-0.41058 2.09981,-0.5304 2.09982,-0.57966 2.09982,-0.49391 2.09981,1.51311 2.09982,-0.51329 2.09982,-1.12618 2.09981,1.63088 2.09982,1.29482 2.09981,-1.04466 2.09982,-0.93323 2.09982,-1.44489 2.09981,-1.0111 2.09982,-1.53904 2.09982,-1.88288 2.09981,-1.82911 2.09982,-2.77298 2.09982,-0.49217 2.09981,0.42975 2.09982,-5.17692 2.09981,-1.66354 2.09982,2.79031 2.09982,-2.31326 2.09981,0.94141 2.09982,4.0648 2.09982,-2.8093 2.09981,1.80986 2.09982,-1.07756 2.09982,-2.29128 2.09981,-2.0337 2.09982,0.61192 2.09981,0.65373 2.09982,-0.0478 2.09982,-3.21692 2.09981,6.26825 2.09982,-5.4928 2.09982,-0.79818 2.09981,-1.88705 2.09982,2.30484 2.09982,-3.75939 2.09981,2.21272 2.09982,2.56975 2.09981,-1.77371 2.09982,0.37579 2.09982,0.40036 2.09981,4.19007 2.09982,1.69947 2.09982,-2.58543 2.09981,1.3421 2.09982,-0.11321 2.09982,2.05132 2.09981,0.238 2.09982,-0.97134 2.09981,-0.79784 2.09982,1.63342 2.09982,-1.86072 2.09981,2.27682 2.09982,-0.88365 2.09982,-0.69591 2.09981,2.68591 2.09982,-0.4087" /></g></g><g
       id="g154"><g
         clip-path="url(#clipPath160)"
         id="g156"><path
           id="path162"
           style="fill:none;stroke:#d62728;stroke-width:1.5;stroke-linecap:square;stroke-linejoin:round;stroke-miterlimit:10;stroke-dasharray:none;stroke-opacity:1"
           d="m 58.924091,157.39681 2.099816,1.13431 2.099817,-1.41529 2.099816,3.4167 2.099816,1.84695 2.099817,1.34568 2.099816,1.79914 2.099816,0.74231 2.099817,-1.82672 2.099816,-1.89553 2.099816,-0.51641 2.099817,0.19902 2.099816,-1.4737 2.099816,-0.10116 2.099817,0.8008 2.099816,0.91427 2.099816,2.34786 2.099817,-0.35054 2.099816,-0.0909 2.099816,-0.36317 2.099819,-0.16587 2.09981,-0.071 2.09982,0.0299 2.09982,0.61473 2.09981,-0.31629 2.09982,-0.21773 2.09982,-0.39434 2.09981,-0.26671 2.09982,-1.07654 2.09982,-0.0373 2.09981,0.0154 2.09982,-1.56519 2.09981,-0.91319 2.09982,-0.21949 2.09982,-0.42617 2.09981,-0.30629 2.09982,1.21779 2.09982,0.38217 2.09981,-0.77816 2.09982,-0.43146 2.09981,-0.54805 2.09982,-0.55834 2.09982,-0.4769 2.09981,1.51757 2.09982,-0.51817 2.09982,-1.11012 2.09981,1.42256 2.09982,3.55199 2.09981,-1.04033 2.09982,-0.93747 2.09982,-1.4304 2.09981,-0.9901 2.09982,-1.52137 2.09982,0.007 2.09981,-1.81925 2.09982,-2.1524 2.09982,-0.4886 2.09981,0.42659 2.09982,-5.18217 2.09981,-1.66303 2.09982,0.47838 2.09982,-2.29198 2.09981,0.97866 2.09982,-0.19977 2.09982,-3.17117 2.09981,0.7142 2.09982,-0.14663 2.09982,-2.14526 2.09981,-1.90886 2.09982,2.32769 2.09981,1.00239 2.09982,-0.7505 2.09982,-3.48349 2.09981,7.75681 2.09982,-4.68018 2.09982,-0.32539 2.09981,-2.14445 2.09982,-2.08637 2.09982,-1.15034 2.09981,0.95878 2.09982,1.91543 2.09981,-1.3651 2.09982,0.30409 2.09982,-1.59361 2.09981,3.01937 2.09982,0.76083 2.09982,0.29834 2.09981,1.64426 2.09982,0.25184 2.09982,0.29092 2.09981,-0.0126 2.09982,-0.59804 2.09981,-0.82303 2.09982,0.30894 2.09982,-0.51918 2.09981,3.42339 2.09982,-0.98388 2.09982,-0.8812 2.09981,0.55263 2.09982,-0.46218" /></g></g><g
       id="g164"><g
         clip-path="url(#clipPath170)"
         id="g166"><path
           id="path172"
           style="fill:none;stroke:#9467bd;stroke-width:1.5;stroke-linecap:butt;stroke-linejoin:round;stroke-miterlimit:10;stroke-dasharray:5.55, 2.4;stroke-dashoffset:0;stroke-opacity:1"
           d="m 58.924091,53.439784 2.099816,4.264463 2.099817,0.896218 2.099816,4.028143 2.099816,0.09914 2.099817,0.785291 2.099816,-1.091981 2.099816,-0.637685 2.099817,0.828188 2.099816,-2.822971 2.099816,-2.65715 2.099817,-0.698133 2.099816,-0.0765 2.099816,0.441782 2.099817,1.318191 2.099816,0.07475 2.099816,1.030857 2.099817,-0.856862 2.099816,0.213403 2.099816,-1.940428 2.099819,-2.427322 2.09981,-0.974008 2.09982,-0.630406 2.09982,-0.282384 2.09981,0.401807 2.09982,0.760836 2.09982,-0.0088 2.09981,-0.786449 2.09982,2.226015 2.09982,-1.984253 2.09981,-0.709612 2.09982,-0.131108 2.09981,0.167686 2.09982,0.705227 2.09982,0.787543 2.09981,0.04263 2.09982,-0.142192 2.09982,-0.242146 2.09981,0.500164 2.09982,1.027258 2.09981,0.796097 2.09982,0.928183 2.09982,-1.650324 2.09981,-1.511615 2.09982,-1.539109 2.09982,-0.131774 2.09981,0.343622 2.09982,1.153989 2.09981,1.459721 2.09982,-0.754189 2.09982,0.107125 2.09981,0.324637 2.09982,-0.941026 2.09982,0.380537 2.09981,-0.09532 2.09982,0.742658 2.09982,1.540454 2.09981,0.06302 2.09982,-0.583555 2.09981,0.786505 2.09982,1.525999 2.09982,0.390123 2.09981,0.964341 2.09982,0.706436 2.09982,0.427361 2.09981,1.558236 2.09982,-0.74922 2.09982,0.276983 2.09981,-2.035656 2.09982,-1.955237 2.09981,-0.759929 2.09982,0.430697 2.09982,-2.43756 2.09981,2.407341 2.09982,0.962772 2.09982,-2.208057 2.09981,-0.943888 2.09982,1.659789 2.09982,-3.776962 2.09981,-0.392687 2.09982,-1.112538 2.09981,0.419219 2.09982,-1.406404 2.09982,-0.692123 2.09981,0.0034 2.09982,-0.425449 2.09982,0.532046 2.09981,0.687429 2.09982,2.31534 2.09982,0.455566 2.09981,0.502807 2.09982,0.689276 2.09981,1.170942 2.09982,2.854172 2.09982,2.936424 2.09981,2.746047 2.09982,0.959936 2.09982,-0.988739 2.09981,-2.974492 2.09982,-2.720197" /></g></g><g
       id="g174"><path
         id="path176"
         style="fill:none;stroke:#000000;stroke-width:0.80000001;stroke-linecap:square;stroke-linejoin:miter;stroke-miterlimit:10;stroke-dasharray:none;stroke-opacity:1"
         d="M 48.53,42.68 V 201.24" /><path
         id="path178"
         style="fill:none;stroke:#000000;stroke-width:0.80000001;stroke-linecap:square;stroke-linejoin:miter;stroke-miterlimit:10;stroke-dasharray:none;stroke-opacity:1"
         d="M 277.2,42.68 V 201.24" /><path
         id="path180"
         style="fill:none;stroke:#000000;stroke-width:0.80000001;stroke-linecap:square;stroke-linejoin:miter;stroke-miterlimit:10;stroke-dasharray:none;stroke-opacity:1"
         d="M 48.53,42.68 H 277.2" /><path
         id="path182"
         style="fill:none;stroke:#000000;stroke-width:0.80000001;stroke-linecap:square;stroke-linejoin:miter;stroke-miterlimit:10;stroke-dasharray:none;stroke-opacity:1"
         d="M 48.53,201.24 H 277.2" /><path
         id="path184"
         style="fill:#ffffff;fill-opacity:0.8;fill-rule:nonzero;stroke:#cccccc;stroke-width:1;stroke-linecap:butt;stroke-linejoin:miter;stroke-miterlimit:10;stroke-dasharray:none;stroke-opacity:0.8"
         d="M 135.41875,47.68 H 270.2 c 1.33333,0 2,0.666667 2,2 v 72.35937 c 0,1.33334 -0.66667,2 -2,2 H 135.41875 c -1.33333,0 -2,-0.66666 -2,-2 V 49.68 c 0,-1.333333 0.66667,-2 2,-2 z" /><path
         id="path186"
         style="fill:none;stroke:#d62728;stroke-width:1.5;stroke-linecap:square;stroke-linejoin:round;stroke-miterlimit:10;stroke-dasharray:none;stroke-opacity:1"
         d="m 137.41875,115.94563 h 10 10" /><g
         transform="translate(165.41875,112.44563)"
         id="g188"><text
           id="text192"
           style="font-variant:normal;font-weight:normal;font-size:10px;font-family:'DejaVu Sans';-inkscape-font-specification:DejaVuSans;writing-mode:lr-tb;fill:#000000;fill-opacity:1;fill-rule:nonzero;stroke:none"
           transform="scale(1,-1)"><tspan
             id="tspan190"
             y="0"
             x="0 6.3499999 14.22 20.45125 26.561251 29.741249 38.12125 41.30125 49.001251 55.151249 61.501251 65.421249 71.761253 78.111252 85.981247 92.212502">SORT + DepthSORT</tspan></text>
</g><path
         id="path194"
         style="fill:none;stroke:#2ca02c;stroke-width:1.5;stroke-linecap:square;stroke-linejoin:round;stroke-miterlimit:10;stroke-dasharray:none;stroke-opacity:1"
         d="m 137.41875,101.27375 h 10 10" /><g
         transform="translate(165.41875,97.77375)"
         id="g196"><text
           id="text200"
           style="font-variant:normal;font-weight:normal;font-size:10px;font-family:'DejaVu Sans';-inkscape-font-specification:DejaVuSans;writing-mode:lr-tb;fill:#000000;fill-opacity:1;fill-rule:nonzero;stroke:none"
           transform="scale(1,-1)"><tspan
             id="tspan198"
             y="0"
             x="0 6.3499999 12.91 18.66 21.84 30.219999 33.400002 41.099998 47.25 53.599998 57.52 63.860001 70.209999 78.080002 84.311249">SKF + DepthSORT</tspan></text>
</g><path
         id="path202"
         style="fill:none;stroke:#ff7f0e;stroke-width:1.5;stroke-linecap:square;stroke-linejoin:round;stroke-miterlimit:10;stroke-dasharray:none;stroke-opacity:1"
         d="m 137.41875,86.601875 h 10 10" /><g
         transform="translate(165.41875,83.101875)"
         id="g204"><text
           id="text208"
           style="font-variant:normal;font-weight:normal;font-size:10px;font-family:'DejaVu Sans';-inkscape-font-specification:DejaVuSans;writing-mode:lr-tb;fill:#000000;fill-opacity:1;fill-rule:nonzero;stroke:none"
           transform="scale(1,-1)"><tspan
             id="tspan206"
             y="0"
             x="0 6.1199999 12.46 15.24 21.16 24.34 30.690001 37.25">only SKF</tspan></text>
</g><path
         id="path210"
         style="fill:none;stroke:#9467bd;stroke-width:1.5;stroke-linecap:butt;stroke-linejoin:round;stroke-miterlimit:10;stroke-dasharray:5.55, 2.4;stroke-dashoffset:0;stroke-opacity:1"
         d="m 137.41875,71.93 h 10 10" /><g
         transform="translate(165.41875,68.43)"
         id="g212"><text
           id="text216"
           style="font-variant:normal;font-weight:normal;font-size:10px;font-family:'DejaVu Sans';-inkscape-font-specification:DejaVuSans;writing-mode:lr-tb;fill:#000000;fill-opacity:1;fill-rule:nonzero;stroke:none"
           transform="scale(1,-1)"><tspan
             id="tspan214"
             y="0"
             x="0 6.3499999 9.1300001 11.91 17.41 23.559999 26.76375 36.435001 39.215 44.424999 50.575001 53.755001 60.105 67.974998 74.206253">Slice-Wise SORT</tspan></text>
</g><path
         id="path218"
         style="fill:none;stroke:#1f77b4;stroke-width:1.5;stroke-linecap:butt;stroke-linejoin:round;stroke-miterlimit:10;stroke-dasharray:5.55, 2.4;stroke-dashoffset:0;stroke-opacity:1"
         d="m 137.41875,57.258125 h 10 10" /><g
         transform="translate(165.41875,53.758125)"
         id="g220"><text
           id="text224"
           style="font-variant:normal;font-weight:normal;font-size:10px;font-family:'DejaVu Sans';-inkscape-font-specification:DejaVuSans;writing-mode:lr-tb;fill:#000000;fill-opacity:1;fill-rule:nonzero;stroke:none"
           transform="scale(1,-1)"><tspan
             id="tspan222"
             y="0"
             x="0 6.3499999 9.1300001 11.91 17.41 23.559999 26.76375 36.435001 39.215 44.424999 50.575001 53.755001 60.615002 66.535004 70.455002 76.605003 81.246246 85.356247 91.486252 96.986252">Slice-Wise ByteTrack</tspan></text>
</g></g></g></svg>